# xmcd
#
# Track frame offsets:
#	150
#	18807
#	31456
#	48779
#	63281
#	76415
#
# Disc length: 1209 seconds
#
# Revision: 1
# Processed by: cddbd v1.5.2PL0 Copyright (c) Steve Scherf et al.
# Submitted via: audiograbber 1.83.01
#
DISCID=3b04b706
DTITLE=Raija Koso - Pieni Kukkanen
DYEAR=2003
DGENRE=Pop
TTITLE0=Vanha Swingi
TTITLE1=Pieni Kukkanen
TTITLE2=Ihanaa Se Ois (Summer Samba)
TTITLE3=Onni Jonka Annoin Pois
TTITLE4=Täysikuu
TTITLE5=Etkö Uskalla Mua Rakastaa
EXTD=TR.
EXTT0=
EXTT1=
EXTT2=
EXTT3=
EXTT4=
EXTT5=
PLAYORDER=
